<svg width="509" height="509" viewBox="0 0 509 509" fill="none" xmlns="http://www.w3.org/2000/svg">
<style>
path, ellipse {
  fill: black;
}

@media (prefers-color-scheme: dark) {
  path, ellipse {
    fill: white;
  }
}
</style>
<path fill-rule="evenodd" clip-rule="evenodd" d="M254.5 51.4141C142.339 51.4141 51.4141 142.339 51.4141 254.5C51.4141 366.661 142.339 457.586 254.5 457.586C366.661 457.586 457.586 366.661 457.586 254.5C457.586 142.339 366.661 51.4141 254.5 51.4141ZM0 254.5C0 113.944 113.944 0 254.5 0C395.056 0 509 113.944 509 254.5C509 395.056 395.056 509 254.5 509C113.944 509 0 395.056 0 254.5Z" fill="white"/>
<ellipse cx="145.619" cy="318.865" rx="37.6495" ry="37.6495" fill="white"/>
<ellipse cx="254.11" cy="363.901" rx="37.6495" ry="37.6495" fill="white"/>
<ellipse cx="364.976" cy="318.865" rx="40.5456" ry="37.6495" fill="white"/>
</svg>
