<?xml version="1.0" encoding="UTF-8"?>
<svg xmlns="http://www.w3.org/2000/svg" xmlns:xlink="http://www.w3.org/1999/xlink" width="25.25pt" height="17.01pt" viewBox="0 0 25.25 17.01" version="1.1">
<defs>
<clipPath id="clip1">
  <path d="M 22 4 L 25.25 4 L 25.25 13 L 22 13 Z M 22 4 "/>
</clipPath>
<clipPath id="clip2">
  <path d="M 0 13 L 25.25 13 L 25.25 17.011719 L 0 17.011719 Z M 0 13 "/>
</clipPath>
<clipPath id="clip3">
  <path d="M 22 0 L 25.25 0 L 25.25 4 L 22 4 Z M 22 0 "/>
</clipPath>
</defs>
<g id="surface1">
<path style=" stroke:none;fill-rule:nonzero;fill:white;fill-opacity:1;" d="M 10.574219 12.933594 L 12.976563 12.933594 L 12.976563 4.097656 L 10.574219 4.097656 Z M 10.574219 12.933594 "/>
<g clip-path="url(#clip1)" clip-rule="nonzero">
<path style=" stroke:none;fill-rule:nonzero;fill:white;fill-opacity:1;" d="M 22.839844 12.933594 L 25.242188 12.933594 L 25.242188 4.097656 L 22.839844 4.097656 Z M 22.839844 12.933594 "/>
</g>
<path style=" stroke:none;fill-rule:nonzero;fill:white;fill-opacity:1;" d="M 16.320313 10.8125 L 19.492188 10.8125 L 19.492188 6.222656 L 13.917969 6.222656 L 13.917969 4.097656 L 21.058594 4.097656 C 21.519531 4.097656 21.898438 4.472656 21.898438 4.9375 L 21.894531 12.09375 C 21.894531 12.558594 21.519531 12.933594 21.054688 12.933594 L 13.917969 12.933594 L 13.917969 7.433594 L 16.320313 7.433594 "/>
<path style=" stroke:none;fill-rule:nonzero;fill:white;fill-opacity:1;" d="M 8.789063 4.097656 L 0 4.097656 L 0 12.933594 L 2.402344 12.933594 L 2.402344 6.222656 L 3.613281 6.222656 L 3.613281 12.933594 L 6.015625 12.933594 L 6.015625 6.222656 L 7.226563 6.222656 L 7.226563 12.933594 L 9.628906 12.933594 L 9.632813 4.9375 C 9.632813 4.472656 9.253906 4.097656 8.789063 4.097656 "/>
<g clip-path="url(#clip2)" clip-rule="nonzero">
<path style=" stroke:none;fill-rule:nonzero;fill:white;fill-opacity:1;" d="M 0 17.011719 L 25.242188 17.011719 L 25.242188 13.835938 L 0 13.835938 Z M 0 17.011719 "/>
</g>
<path style=" stroke:none;fill-rule:nonzero;fill:white;fill-opacity:1;" d="M 1.945313 1.507813 L 3.511719 1.507813 L 3.511719 3.167969 L 2.988281 3.167969 L 2.910156 2.78125 C 2.710938 2.972656 2.425781 3.25 1.738281 3.25 C 0.835938 3.25 0.015625 2.71875 0.015625 1.636719 C 0.015625 0.796875 0.585938 0 1.851563 0.00390625 C 3 0.00390625 3.457031 0.617188 3.496094 1.046875 L 2.710938 1.046875 C 2.710938 0.921875 2.445313 0.539063 1.890625 0.539063 C 1.332031 0.539063 0.816406 0.855469 0.816406 1.644531 C 0.816406 2.484375 1.375 2.703125 1.90625 2.703125 C 2.082031 2.703125 2.652344 2.648438 2.816406 2.027344 L 1.945313 2.027344 "/>
<path style=" stroke:none;fill-rule:nonzero;fill:white;fill-opacity:1;" d="M 7.019531 0.632813 L 5.027344 0.632813 L 5.027344 1.277344 L 6.855469 1.277344 L 6.855469 1.824219 L 5.027344 1.824219 L 5.027344 2.621094 L 7.105469 2.621094 L 7.105469 3.167969 L 4.257813 3.167969 L 4.257813 0.0859375 L 7.019531 0.0859375 "/>
<path style=" stroke:none;fill-rule:nonzero;fill:white;fill-opacity:1;" d="M 10.042969 0.0859375 L 10.777344 0.0859375 L 10.777344 3.167969 L 9.992188 3.167969 L 8.460938 0.972656 L 8.449219 0.972656 L 8.449219 3.167969 L 7.71875 3.167969 L 7.71875 0.0859375 L 8.542969 0.0859375 L 10.035156 2.234375 L 10.042969 2.234375 "/>
<path style=" stroke:none;fill-rule:nonzero;fill:white;fill-opacity:1;" d="M 14.300781 0.632813 L 12.308594 0.632813 L 12.308594 1.277344 L 14.136719 1.277344 L 14.136719 1.824219 L 12.308594 1.824219 L 12.308594 2.621094 L 14.386719 2.621094 L 14.386719 3.167969 L 11.539063 3.167969 L 11.539063 0.0859375 L 14.300781 0.0859375 "/>
<path style=" stroke:none;fill-rule:nonzero;fill:white;fill-opacity:1;" d="M 16.722656 1.441406 C 17.132813 1.441406 17.332031 1.328125 17.332031 1.023438 C 17.332031 0.859375 17.238281 0.617188 16.78125 0.617188 L 15.804688 0.617188 L 15.804688 1.441406 Z M 15.035156 0.0859375 L 16.933594 0.0859375 C 17.929688 0.0859375 18.113281 0.691406 18.113281 0.957031 C 18.113281 1.296875 17.90625 1.589844 17.535156 1.691406 C 17.84375 1.804688 18.007813 1.898438 18.007813 2.472656 C 18.007813 2.925781 18.007813 3.035156 18.175781 3.085938 L 18.175781 3.167969 L 17.308594 3.167969 C 17.257813 3.023438 17.226563 2.863281 17.226563 2.546875 C 17.226563 2.125 17.195313 1.964844 16.613281 1.964844 L 15.804688 1.964844 L 15.804688 3.167969 L 15.035156 3.167969 "/>
<path style=" stroke:none;fill-rule:nonzero;fill:white;fill-opacity:1;" d="M 19.824219 2 L 20.78125 2 L 20.316406 0.78125 L 20.304688 0.78125 Z M 19.355469 3.167969 L 18.527344 3.167969 L 19.867188 0.0859375 L 20.769531 0.0859375 L 22.09375 3.167969 L 21.238281 3.167969 L 21 2.535156 L 19.613281 2.535156 "/>
<g clip-path="url(#clip3)" clip-rule="nonzero">
<path style=" stroke:none;fill-rule:nonzero;fill:white;fill-opacity:1;" d="M 23.386719 2.609375 L 25.253906 2.609375 L 25.253906 3.167969 L 22.605469 3.167969 L 22.605469 0.0859375 L 23.386719 0.0859375 "/>
</g>
</g>
</svg>
