<svg width="449" height="120" viewBox="0 0 449 120" fill="none" xmlns="http://www.w3.org/2000/svg">
<g clip-path="url(#clip0)">
<path d="M167.961 76.653C170.296 78.4383 172.527 79.7773 174.656 80.67C176.785 81.5627 178.948 82.009 181.145 82.009C183.411 82.009 185.059 81.6313 186.089 80.876C187.119 80.1207 187.634 79.0563 187.634 77.683C187.634 76.859 187.325 76.138 186.707 75.52C186.158 74.8333 185.368 74.2153 184.338 73.666C183.377 73.1167 182.278 72.636 181.042 72.224C179.806 71.7433 178.536 71.2283 177.231 70.679C175.652 70.061 174.072 69.34 172.493 68.516C170.914 67.692 169.472 66.6963 168.167 65.529C166.862 64.293 165.798 62.8853 164.974 61.306C164.15 59.658 163.738 57.7697 163.738 55.641C163.738 53.3063 164.184 51.1433 165.077 49.152C166.038 47.1607 167.377 45.4783 169.094 44.105C170.811 42.7317 172.871 41.6673 175.274 40.912C177.677 40.088 180.355 39.676 183.308 39.676C187.222 39.676 190.655 40.3627 193.608 41.736C196.561 43.0407 199.136 44.517 201.333 46.165L194.535 55.229C192.681 53.8557 190.861 52.7913 189.076 52.036C187.291 51.2807 185.505 50.903 183.72 50.903C179.875 50.903 177.952 52.242 177.952 54.92C177.952 55.744 178.227 56.465 178.776 57.083C179.325 57.6323 180.046 58.1473 180.939 58.628C181.9 59.1087 182.965 59.5893 184.132 60.07C185.368 60.482 186.638 60.9283 187.943 61.409C189.591 62.027 191.205 62.748 192.784 63.572C194.432 64.3273 195.908 65.2887 197.213 66.456C198.586 67.6233 199.685 69.0653 200.509 70.782C201.333 72.43 201.745 74.4213 201.745 76.756C201.745 79.0907 201.299 81.2537 200.406 83.245C199.513 85.2363 198.174 86.9873 196.389 88.498C194.604 89.94 192.406 91.1073 189.797 92C187.188 92.824 184.166 93.236 180.733 93.236C177.368 93.236 173.901 92.5837 170.33 91.279C166.828 89.9743 163.772 88.2577 161.163 86.129L167.961 76.653ZM220.425 33.393C217.884 33.393 215.79 32.672 214.142 31.23C212.494 29.7193 211.67 27.7967 211.67 25.462C211.67 23.1273 212.494 21.239 214.142 19.797C215.79 18.355 217.884 17.634 220.425 17.634C223.034 17.634 225.129 18.355 226.708 19.797C228.356 21.239 229.18 23.1273 229.18 25.462C229.18 27.7967 228.356 29.7193 226.708 31.23C225.129 32.672 223.034 33.393 220.425 33.393ZM212.906 40.912H228.047V92H212.906V40.912ZM250.642 98.386C250.642 100.309 251.672 101.751 253.732 102.712C255.792 103.742 258.539 104.257 261.972 104.257C265.405 104.257 268.221 103.639 270.418 102.403C272.615 101.236 273.714 99.7593 273.714 97.974C273.714 96.3947 273.027 95.3303 271.654 94.781C270.349 94.2317 268.427 93.957 265.886 93.957H260.633C258.848 93.957 257.406 93.8883 256.307 93.751C255.208 93.6823 254.247 93.545 253.423 93.339C251.569 94.987 250.642 96.6693 250.642 98.386ZM238.179 100.755C238.179 96.635 240.617 93.2017 245.492 90.455V90.043C244.119 89.1503 242.986 88.0173 242.093 86.644C241.2 85.2707 240.754 83.5197 240.754 81.391C240.754 79.537 241.303 77.786 242.402 76.138C243.501 74.4213 244.874 72.9793 246.522 71.812V71.4C244.737 70.164 243.123 68.413 241.681 66.147C240.308 63.8123 239.621 61.1343 239.621 58.113C239.621 55.023 240.205 52.345 241.372 50.079C242.539 47.7443 244.084 45.8217 246.007 44.311C247.998 42.7317 250.264 41.5643 252.805 40.809C255.346 40.0537 257.989 39.676 260.736 39.676C263.757 39.676 266.401 40.088 268.667 40.912H287.31V51.933H279.173C279.654 52.6883 280.031 53.6497 280.306 54.817C280.649 55.9843 280.821 57.2547 280.821 58.628C280.821 61.5807 280.306 64.1557 279.276 66.353C278.246 68.4817 276.804 70.267 274.95 71.709C273.165 73.0823 271.036 74.1123 268.564 74.799C266.161 75.4857 263.551 75.829 260.736 75.829C258.745 75.829 256.685 75.4857 254.556 74.799C253.869 75.3483 253.389 75.8977 253.114 76.447C252.839 76.9963 252.702 77.7173 252.702 78.61C252.702 79.9147 253.251 80.876 254.35 81.494C255.517 82.112 257.543 82.421 260.427 82.421H268.667C274.984 82.421 279.791 83.451 283.087 85.511C286.452 87.5023 288.134 90.7983 288.134 95.399C288.134 98.077 287.447 100.515 286.074 102.712C284.769 104.978 282.881 106.901 280.409 108.48C277.937 110.128 274.95 111.398 271.448 112.291C267.946 113.252 263.998 113.733 259.603 113.733C256.582 113.733 253.766 113.458 251.157 112.909C248.616 112.428 246.35 111.673 244.359 110.643C242.436 109.613 240.926 108.274 239.827 106.626C238.728 104.978 238.179 103.021 238.179 100.755ZM260.736 66.662C262.727 66.662 264.375 65.9753 265.68 64.602C267.053 63.16 267.74 60.997 267.74 58.113C267.74 55.435 267.053 53.4093 265.68 52.036C264.375 50.594 262.727 49.873 260.736 49.873C258.745 49.873 257.062 50.5597 255.689 51.933C254.384 53.3063 253.732 55.3663 253.732 58.113C253.732 60.997 254.384 63.16 255.689 64.602C257.062 65.9753 258.745 66.662 260.736 66.662ZM295.877 40.912H308.237L309.267 47.401H309.679C311.877 45.341 314.28 43.5557 316.889 42.045C319.499 40.4657 322.554 39.676 326.056 39.676C331.618 39.676 335.635 41.4957 338.107 45.135C340.648 48.7743 341.918 53.8213 341.918 60.276V92H326.777V62.233C326.777 58.525 326.262 55.9843 325.232 54.611C324.271 53.2377 322.692 52.551 320.494 52.551C318.572 52.551 316.924 52.9973 315.55 53.89C314.177 54.714 312.666 55.9157 311.018 57.495V92H295.877V40.912ZM351.422 77.786C351.422 72.43 353.688 68.2413 358.22 65.22C362.752 62.1987 370.065 60.173 380.159 59.143C380.021 56.877 379.335 55.0917 378.099 53.787C376.863 52.4137 374.871 51.727 372.125 51.727C369.927 51.727 367.73 52.139 365.533 52.963C363.335 53.787 361.001 54.92 358.529 56.362L353.173 46.371C356.469 44.3797 359.902 42.766 363.473 41.53C367.112 40.294 370.957 39.676 375.009 39.676C381.601 39.676 386.613 41.5643 390.047 45.341C393.549 49.049 395.3 54.8513 395.3 62.748V92H382.94L381.807 86.747H381.498C379.3 88.6697 376.966 90.249 374.494 91.485C372.09 92.6523 369.447 93.236 366.563 93.236C364.228 93.236 362.134 92.824 360.28 92C358.426 91.2447 356.846 90.1803 355.542 88.807C354.237 87.365 353.207 85.717 352.452 83.863C351.765 82.009 351.422 79.9833 351.422 77.786ZM365.842 76.653C365.842 78.301 366.357 79.537 367.387 80.361C368.485 81.1163 369.927 81.494 371.713 81.494C373.498 81.494 375.009 81.1163 376.245 80.361C377.481 79.6057 378.785 78.5413 380.159 77.168V68.207C374.734 68.9623 370.992 70.061 368.932 71.503C366.872 72.945 365.842 74.6617 365.842 76.653ZM408.296 19.797H423.437V92H408.296V19.797Z" fill="white"/>
<circle cx="68.5" cy="60.5" r="44.5" stroke="white" stroke-width="10"/>
<circle cx="47.3228" cy="73.019" r="7.32278" fill="white"/>
<circle cx="68.4241" cy="81.7785" r="7.32278" fill="white"/>
<ellipse cx="89.9874" cy="73.019" rx="7.88608" ry="7.32278" fill="white"/>
</g>
<defs>
<clipPath id="clip0">
<rect width="449" height="120" fill="white"/>
</clipPath>
</defs>
</svg>
