<?xml version="1.0" encoding="iso-8859-1"?>
<!-- Generator: Adobe Illustrator 19.0.0, SVG Export Plug-In . SVG Version: 6.00 Build 0)  -->
<svg version="1.1" id="Layer_1" xmlns="http://www.w3.org/2000/svg" xmlns:xlink="http://www.w3.org/1999/xlink" x="0px" y="0px"
	 viewBox="0 0 512 512" style="enable-background:new 0 0 512 512;" xml:space="preserve" fill="white">
<g>
	<g>
		<path d="M494.685,62.301H17.315C7.931,62.301,0,69.553,0,78.938v316.767c0,29.969,24.706,53.994,54.674,53.994h402.653
			c29.967,0,54.673-24.025,54.673-53.994V78.938C512,69.553,504.069,62.301,494.685,62.301z M135.929,405.522H99.681V226.549h21.522
			v71.363c0,8.613,6.416,15.712,14.726,16.822V405.522z M208.425,405.522h-38.513V226.549h23.788v71.363
			c0,8.613,6.416,15.712,14.726,16.822V405.522z M280.92,405.522h-38.513V226.549h24.92v71.363c0,8.22,5.838,15.076,13.593,16.65
			V405.522z M354.549,405.522h-39.646V226.549h24.92v71.363c0,8.613,6.416,15.712,14.726,16.822V405.522z M412.319,405.522h-23.788
			V226.549h23.788V405.522z M478.018,395.705c0,11.231-9.462,20.012-20.692,20.012h-11.025V209.718
			c0-9.384-7.169-17.152-16.553-17.152H82.252c-9.384,0-16.553,7.767-16.553,17.152v205.998H54.674
			c-11.23,0-20.692-8.781-20.692-20.012V96.283h444.035V395.705z"/>
	</g>
</g>
<g>
	<g>
		<circle cx="363.067" cy="144.81" r="15.485"/>
	</g>
</g>
<g>
	<g>
		<circle cx="420.135" cy="144.81" r="15.485"/>
	</g>
</g>
<g>
	<g>
		<path d="M114.407,129.133H84.956c-9.384,0-16.991,7.607-16.991,16.991c0,9.384,7.607,16.991,16.991,16.991h29.451
			c9.384,0,16.991-7.608,16.991-16.991C131.398,136.74,123.791,129.133,114.407,129.133z"/>
	</g>
</g>
<g>
</g>
<g>
</g>
<g>
</g>
<g>
</g>
<g>
</g>
<g>
</g>
<g>
</g>
<g>
</g>
<g>
</g>
<g>
</g>
<g>
</g>
<g>
</g>
<g>
</g>
<g>
</g>
<g>
</g>
</svg>
