<svg width="128" height="128" viewBox="0 0 128 128" xmlns="http://www.w3.org/2000/svg">
<path fill-rule="evenodd" clip-rule="evenodd" d="M32 22.5H96C101.523 22.5 106 26.9772 106 32.5V96.5C106 102.023 101.523 106.5 96 106.5H32C26.4772 106.5 22 102.023 22 96.5V32.5C22 26.9772 26.4772 22.5 32 22.5ZM16 32.5C16 23.6634 23.1634 16.5 32 16.5H96C104.837 16.5 112 23.6634 112 32.5V96.5C112 105.337 104.837 112.5 96 112.5H32C23.1634 112.5 16 105.337 16 96.5V32.5ZM73.6939 60.5H54.3064V68.5H73.6939V60.5ZM64 40.5H96V48.5H64V40.5ZM64 80.5H32V88.5H64V80.5Z" fill="black"/>
</svg>
