<svg width="128" height="128" viewBox="0 0 128 128" xmlns="http://www.w3.org/2000/svg">
<path fill-rule="evenodd" clip-rule="evenodd" d="M92.6558 25.2473C92.9841 24.9166 94.0456 24.6219 95.0515 25.6337L102.642 33.2691C103.636 34.2691 103.35 35.3191 103.023 35.6493L93.0287 45.7177L82.6443 35.3333L92.6558 25.2473ZM78.4174 39.5917L33.5501 84.793L29.5798 98.772L43.9206 95.1913L88.8018 49.9761L78.4174 39.5917ZM99.3066 21.4036C96.4321 18.5121 91.5225 17.8721 88.3974 21.0204L28.7465 81.1154L28.2012 81.6647L27.9898 82.4092L22.392 102.119L20.976 107.104L26.0046 105.849L46.1866 100.81L46.9991 100.607L47.589 100.013L107.281 39.8762C110.375 36.7595 109.747 31.906 106.897 29.039L99.3066 21.4036Z" fill="black"/>
</svg>
