<svg width="128" height="128" viewBox="0 0 128 128" xmlns="http://www.w3.org/2000/svg">
<path fill-rule="evenodd" clip-rule="evenodd" d="M72 22H56V72H52V106H78V72H72V22ZM84 72V106H96C101.523 106 106 101.523 106 96V32C106 26.4772 101.523 22 96 22H88V72H84ZM84 112H78H52H46H32C23.1634 112 16 104.837 16 96V32C16 23.1634 23.1634 16 32 16H40H56H72H88H96C104.837 16 112 23.1634 112 32V96C112 104.837 104.837 112 96 112H84ZM40 72H46V106H32C26.4772 106 22 101.523 22 96V32C22 26.4772 26.4772 22 32 22H40V72Z" fill="black"/>
</svg>
