<svg width="128" height="128" viewBox="0 0 128 128" xmlns="http://www.w3.org/2000/svg">
<path fill-rule="evenodd" clip-rule="evenodd" d="M27 21H21V27H27V21ZM37 21H43V27H37V21ZM59 21H53V27H59V21ZM75 21H69V27H75V21ZM91 21H85V27H91V21ZM101 21H107V27H101V21ZM101 37H107V43H101V37ZM27 37H21V43H27V37ZM101 53H107V59H101V53ZM27 53H21V59H27V53ZM101 69H107V75H101V69ZM27 69H21V75H27V69ZM101 85H107V91H101V85ZM27 85H21V91H27V85ZM69 101H75V107H69V101ZM91 101H85V107H91V101ZM101 101H107V107H101V101ZM59 101H53V107H59V101ZM37 101H43V107H37V101ZM27 101H21V107H27V101Z" fill="black"/>
</svg>
