<svg width="128" height="128" viewBox="0 0 128 128" xmlns="http://www.w3.org/2000/svg">
<path fill-rule="evenodd" clip-rule="evenodd" d="M106 64C106 87.196 87.196 106 64 106C40.804 106 22 87.196 22 64C22 40.804 40.804 22 64 22C87.196 22 106 40.804 106 64ZM112 64C112 90.5097 90.5097 112 64 112C37.4903 112 16 90.5097 16 64C16 37.4903 37.4903 16 64 16C90.5097 16 112 37.4903 112 64ZM67 40C67 38.3431 65.6569 37 64 37C62.3431 37 61 38.3431 61 40V65.2427L77.8787 82.1213C79.0503 83.2929 80.9498 83.2929 82.1213 82.1213C83.2929 80.9497 83.2929 79.0503 82.1213 77.8787L67 62.7574V40Z" fill="black"/>
</svg>
