<svg width="99" height="99" viewBox="0 0 99 99" fill="none" xmlns="http://www.w3.org/2000/svg">
<path d="M49.5 94C74.0767 94 94 74.0767 94 49.5C94 24.9233 74.0767 5 49.5 5C24.9233 5 5 24.9233 5 49.5C5 74.0767 24.9233 94 49.5 94Z" stroke="white" stroke-width="10"/>
<path d="M28.3228 69.3418C32.367 69.3418 35.6456 66.0633 35.6456 62.019C35.6456 57.9747 32.367 54.6962 28.3228 54.6962C24.2785 54.6962 21 57.9747 21 62.019C21 66.0633 24.2785 69.3418 28.3228 69.3418Z" fill="white"/>
<path d="M49.4241 78.1012C53.4684 78.1012 56.7469 74.8227 56.7469 70.7785C56.7469 66.7342 53.4684 63.4557 49.4241 63.4557C45.3798 63.4557 42.1013 66.7342 42.1013 70.7785C42.1013 74.8227 45.3798 78.1012 49.4241 78.1012Z" fill="white"/>
<path d="M70.9874 69.3418C75.3428 69.3418 78.8735 66.0633 78.8735 62.019C78.8735 57.9747 75.3428 54.6962 70.9874 54.6962C66.632 54.6962 63.1013 57.9747 63.1013 62.019C63.1013 66.0633 66.632 69.3418 70.9874 69.3418Z" fill="white"/>
</svg>
